<svg width="448" height="672" viewBox="0 0 2731 4096" fill="none" xmlns="http://www.w3.org/2000/svg">
  <clipPath id="mask">
    <path transform="translate(328.5, 1109.5)"
      d="M1 972.5C227.411 1071.96 322.892 1098.63 430.5 1063.5V1172.01V1259.48V1331.45L400 1445.4L411 1686.5L377 1795.26L400 1852.23L364.5 1948L354.5 2051L340 2205L354.5 2283.5L400 2331.01C939.5 2410 1212.5 2447.5 1662 2361.5L1711.5 2255.06L1688.5 2084.14V1878.72L1645.5 1625.5V1460L1628 1259.48L1663 1059C1817 1034.5 1902.51 1007.09 2046 940.11L1927 574L1875.5 396L1784 218.41L1535 96.5L1270.5 1.5C1287.45 57.2499 1272.24 82.2409 1220 120.451C1158.67 168.906 1115.29 185.086 1028.5 202.417C957.827 207.264 917.777 205.06 844.5 179.926C767.791 131.004 740.261 101.348 753.5 39.4842L618.5 96.5L531 148L380.5 211L303.5 255.5L252 294.378L109 625L52.5 804.5L21.5 892L1 972.5Z"
      stroke="black" fill-rule="evenodd" fill="#a0a" />
  </clipPath>
  <image width="100%" height="100%" clip-path="url(#mask)" xlink:href="me-colored.jpg" />
</svg>